<svg width="40" height="40" viewBox="0 0 40 40" fill="none" xmlns="http://www.w3.org/2000/svg">
<g clip-path="url(#clip0_20_164)">
<path d="M17.2015 5.24257C17.0881 5.12886 16.9533 5.03865 16.805 4.9771C16.6566 4.91554 16.4976 4.88386 16.337 4.88386C16.1764 4.88386 16.0174 4.91554 15.869 4.9771C15.7207 5.03865 15.586 5.12886 15.4725 5.24257L0.820643 19.8945C0.707331 20.0081 0.617519 20.1429 0.556343 20.2912C0.495167 20.4395 0.463827 20.5985 0.464113 20.7589V37.8528C0.464113 38.1766 0.592753 38.4872 0.821734 38.7162C1.05071 38.9452 1.36128 39.0738 1.68511 39.0738H12.674C12.9979 39.0738 13.3084 38.9452 13.5374 38.7162C13.7664 38.4872 13.895 38.1766 13.895 37.8528V28.0849H18.779V37.8528C18.779 38.1766 18.9076 38.4872 19.1366 38.7162C19.3656 38.9452 19.6762 39.0738 20 39.0738H30.9889C31.3127 39.0738 31.6233 38.9452 31.8523 38.7162C32.0813 38.4872 32.2099 38.1766 32.2099 37.8528V20.7589C32.2102 20.5985 32.1789 20.4395 32.1177 20.2912C32.0565 20.1429 31.9667 20.0081 31.8534 19.8945L28.5469 16.5905V8.54902C28.5469 8.22519 28.4183 7.91462 28.1893 7.68564C27.9603 7.45666 27.6498 7.32802 27.3259 7.32802H24.884C24.5601 7.32802 24.2496 7.45666 24.0206 7.68564C23.7916 7.91462 23.663 8.22519 23.663 8.54902V11.7065L17.2015 5.24257ZM2.9061 36.6318V21.2644L16.337 7.83351L29.7679 21.2644V36.6318H21.221V26.8639C21.221 26.5401 21.0923 26.2295 20.8634 26.0005C20.6344 25.7715 20.3238 25.6429 20 25.6429H12.674C12.3502 25.6429 12.0396 25.7715 11.8107 26.0005C11.5817 26.2295 11.453 26.5401 11.453 26.8639V36.6318H2.9061Z" fill="#E6E6E6" fill-opacity="0.6"/>
<path d="M24.5274 5.24257C24.4139 5.12886 24.2792 5.03865 24.1309 4.9771C23.9825 4.91554 23.8235 4.88386 23.6629 4.88386C23.5023 4.88386 23.3433 4.91554 23.1949 4.9771C23.0466 5.03865 22.9119 5.12886 22.7984 5.24257L8.14654 19.8945C8.03323 20.0081 7.94342 20.1429 7.88224 20.2912C7.82106 20.4396 7.78972 20.5985 7.79001 20.7589V37.8528C7.79001 38.1766 7.91865 38.4872 8.14763 38.7162C8.37661 38.9452 8.68718 39.0738 9.011 39.0738H19.9999C20.3238 39.0738 20.6343 38.9452 20.8633 38.7162C21.0923 38.4872 21.2209 38.1766 21.2209 37.8528V28.0849H26.1049V37.8528C26.1049 38.1766 26.2335 38.4872 26.4625 38.7162C26.6915 38.9452 27.0021 39.0738 27.3259 39.0738H38.3148C38.6386 39.0738 38.9492 38.9452 39.1782 38.7162C39.4072 38.4872 39.5358 38.1766 39.5358 37.8528V20.7589C39.5361 20.5985 39.5048 20.4396 39.4436 20.2912C39.3824 20.1429 39.2926 20.0081 39.1793 19.8945L35.8728 16.5905V8.54902C35.8728 8.22519 35.7442 7.91463 35.5152 7.68564C35.2862 7.45666 34.9757 7.32802 34.6518 7.32802H32.2099C31.886 7.32802 31.5755 7.45666 31.3465 7.68564C31.1175 7.91463 30.9889 8.22519 30.9889 8.54902V11.7065L24.5274 5.24257ZM10.232 36.6318V21.2644L23.6629 7.83351L37.0938 21.2644V36.6318H28.5469V26.8639C28.5469 26.5401 28.4182 26.2295 28.1893 26.0005C27.9603 25.7715 27.6497 25.6429 27.3259 25.6429H19.9999C19.6761 25.6429 19.3655 25.7715 19.1366 26.0005C18.9076 26.2295 18.7789 26.5401 18.7789 26.8639V36.6318H10.232Z" fill="#FF9505"/>
</g>
<defs>
<clipPath id="clip0_20_164">
<rect width="39.0717" height="39.0717" fill="white" transform="translate(0.464142)"/>
</clipPath>
</defs>
</svg>
