<svg width="72" height="62" viewBox="0 0 72 62" fill="none" xmlns="http://www.w3.org/2000/svg">
<g clip-path="url(#clip0_31_5)">
<path d="M31.4146 0.526841C31.2085 0.320217 30.9637 0.156283 30.6941 0.0444293C30.4246 -0.0674243 30.1356 -0.125 29.8438 -0.125C29.5519 -0.125 29.2629 -0.0674243 28.9934 0.0444293C28.7238 0.156283 28.479 0.320217 28.2729 0.526841L1.64788 27.1518C1.44197 27.3583 1.27877 27.6033 1.1676 27.8728C1.05643 28.1423 0.999483 28.4312 1 28.7227V59.7852C1 60.3737 1.23376 60.938 1.64986 61.3541C2.06596 61.7702 2.6303 62.004 3.21875 62.004H23.1875C23.776 62.004 24.3403 61.7702 24.7564 61.3541C25.1725 60.938 25.4063 60.3737 25.4063 59.7852V42.0352H34.2813V59.7852C34.2813 60.3737 34.515 60.938 34.9311 61.3541C35.3472 61.7702 35.9116 62.004 36.5 62.004H56.4688C57.0572 62.004 57.6216 61.7702 58.0377 61.3541C58.4538 60.938 58.6875 60.3737 58.6875 59.7852V28.7227C58.688 28.4312 58.6311 28.1423 58.5199 27.8728C58.4087 27.6033 58.2455 27.3583 58.0396 27.1518L52.0313 21.1479V6.53522C52.0313 5.94677 51.7975 5.38242 51.3814 4.96632C50.9653 4.55023 50.401 4.31647 49.8125 4.31647H45.375C44.7866 4.31647 44.2222 4.55023 43.8061 4.96632C43.39 5.38242 43.1563 5.94677 43.1563 6.53522V12.2729L31.4146 0.526841ZM5.4375 57.5665V29.6413L29.8438 5.23503L54.25 29.6413V57.5665H38.7188V39.8165C38.7188 39.228 38.485 38.6637 38.0689 38.2476C37.6528 37.8315 37.0885 37.5977 36.5 37.5977H23.1875C22.5991 37.5977 22.0347 37.8315 21.6186 38.2476C21.2025 38.6637 20.9688 39.228 20.9688 39.8165V57.5665H5.4375Z" fill="#E6E6E6" fill-opacity="0.6"/>
<path d="M44.7271 0.526841C44.521 0.320217 44.2762 0.156283 44.0066 0.0444293C43.7371 -0.0674243 43.4481 -0.125 43.1563 -0.125C42.8644 -0.125 42.5754 -0.0674243 42.3059 0.0444293C42.0363 0.156283 41.7915 0.320217 41.5854 0.526841L14.9604 27.1518C14.7545 27.3583 14.5913 27.6033 14.4801 27.8728C14.3689 28.1423 14.312 28.4312 14.3125 28.7227V59.7852C14.3125 60.3737 14.5463 60.938 14.9624 61.3541C15.3785 61.7702 15.9428 62.004 16.5313 62.004H36.5C37.0885 62.004 37.6528 61.7702 38.0689 61.3541C38.485 60.938 38.7188 60.3737 38.7188 59.7852V42.0352H47.5938V59.7852C47.5938 60.3737 47.8275 60.938 48.2436 61.3541C48.6597 61.7702 49.2241 62.004 49.8125 62.004H69.7813C70.3697 62.004 70.9341 61.7702 71.3502 61.3541C71.7663 60.938 72 60.3737 72 59.7852V28.7227C72.0005 28.4312 71.9436 28.1423 71.8324 27.8728C71.7212 27.6033 71.558 27.3583 71.3521 27.1518L65.3438 21.1479V6.53522C65.3438 5.94677 65.11 5.38242 64.6939 4.96632C64.2778 4.55023 63.7135 4.31647 63.125 4.31647H58.6875C58.0991 4.31647 57.5347 4.55023 57.1186 4.96632C56.7025 5.38242 56.4688 5.94677 56.4688 6.53522V12.2729L44.7271 0.526841ZM18.75 57.5665V29.6413L43.1563 5.23503L67.5625 29.6413V57.5665H52.0313V39.8165C52.0313 39.228 51.7975 38.6637 51.3814 38.2476C50.9653 37.8315 50.401 37.5977 49.8125 37.5977H36.5C35.9116 37.5977 35.3472 37.8315 34.9311 38.2476C34.515 38.6637 34.2813 39.228 34.2813 39.8165V57.5665H18.75Z" fill="#FF9505"/>
</g>
<defs>
<clipPath id="clip0_31_5">
<rect width="71" height="62" fill="white" transform="translate(0.5)"/>
</clipPath>
</defs>
</svg>
