<svg width="17" height="16" viewBox="0 0 17 16" fill="none" xmlns="http://www.w3.org/2000/svg">
<path d="M15 8.75004H3V3.12504C2.99942 2.91321 3.04086 2.70336 3.12193 2.50765C3.203 2.31195 3.32208 2.13426 3.47228 1.98488L3.48478 1.97238C3.72018 1.73734 4.0224 1.58069 4.35016 1.52385C4.67792 1.46702 5.01524 1.51275 5.31603 1.65482C5.03196 2.12713 4.91389 2.68083 4.98057 3.22794C5.04726 3.77505 5.29488 4.28417 5.68409 4.67442L6.02631 5.01663L5.39641 5.64657L6.10347 6.35363L6.73338 5.72373L10.2237 2.23351L10.8536 1.6036L10.1465 0.896509L9.51653 1.52642L9.17431 1.1842C8.76458 0.775612 8.22448 0.523746 7.64812 0.472488C7.07176 0.42123 6.49568 0.57383 6.02028 0.903697C5.51897 0.587107 4.9249 0.450433 4.33564 0.516127C3.74638 0.581821 3.19699 0.845975 2.77772 1.2652L2.76522 1.2777C2.52186 1.51973 2.32892 1.80762 2.19757 2.12472C2.06622 2.44182 1.99907 2.78182 2 3.12504V8.75004H1V9.75004H2V10.7094C1.99998 10.79 2.01298 10.8701 2.0385 10.9466L2.96875 13.7372C3.01839 13.8866 3.11385 14.0166 3.24156 14.1086C3.36928 14.2007 3.52275 14.2502 3.68019 14.25H4.08331L3.71875 15.5H4.76041L5.125 14.25H11.6281L12.0031 15.5H13.0469L12.6719 14.25H13.3197C13.4771 14.2502 13.6306 14.2007 13.7584 14.1087C13.8861 14.0166 13.9816 13.8866 14.0312 13.7372L14.9614 10.9466C14.987 10.8701 15 10.79 15 10.7094V9.75004H16V8.75004H15ZM6.39125 1.89129C6.66675 1.61639 7.04004 1.462 7.42923 1.462C7.81842 1.462 8.19172 1.61639 8.46722 1.89129L8.80937 2.23351L6.73347 4.30942L6.39125 3.96726C6.11637 3.69175 5.96199 3.31846 5.96199 2.92928C5.96199 2.54009 6.11637 2.1668 6.39125 1.89129ZM14 10.6688L13.1396 13.25H3.86037L3 10.6688V9.75004H14V10.6688Z" fill="#FFFBFB" fill-opacity="0.65"/>
</svg>
