<svg width="27" height="26" viewBox="0 0 27 26" fill="none" xmlns="http://www.w3.org/2000/svg">
<g clip-path="url(#clip0_20_204)">
<path d="M12.1666 6.33332H6.33329C5.89127 6.33332 5.46734 6.50891 5.15478 6.82147C4.84222 7.13403 4.66663 7.55796 4.66663 7.99999V19.6667C4.66663 20.1087 4.84222 20.5326 5.15478 20.8452C5.46734 21.1577 5.89127 21.3333 6.33329 21.3333H18C18.442 21.3333 18.8659 21.1577 19.1785 20.8452C19.491 20.5326 19.6666 20.1087 19.6666 19.6667V13.8333M18.4166 5.08332C18.7481 4.7518 19.1978 4.56555 19.6666 4.56555C20.1355 4.56555 20.5851 4.7518 20.9166 5.08332C21.2481 5.41484 21.4344 5.86448 21.4344 6.33332C21.4344 6.80216 21.2481 7.2518 20.9166 7.58332L13 15.5L9.66663 16.3333L10.5 13L18.4166 5.08332Z" stroke="#1E1E1E" stroke-width="2" stroke-linecap="round" stroke-linejoin="round"/>
</g>
<defs>
<clipPath id="clip0_20_204">
<rect width="20" height="20" fill="white" transform="translate(3 3)"/>
</clipPath>
</defs>
</svg>
