<svg width="28" height="18" viewBox="0 0 28 18" fill="none" xmlns="http://www.w3.org/2000/svg">
<path d="M28 15.2308C28 16.7601 26.607 18 24.8889 18H3.11111C1.393 18 0 16.7601 0 15.2308V2.76923C0 1.23992 1.393 0 3.11111 0H24.8889C26.607 0 28 1.23992 28 2.76923V15.2308Z" fill="black"/>
<path d="M9.29452 8.7487L0.495519 16.5808C0.474519 16.6002 0.466741 16.6244 0.448853 16.6438C0.713297 17.0384 1.08196 17.3659 1.5253 17.6019C1.54785 17.586 1.5743 17.5791 1.5953 17.5604L10.3951 9.72763C10.6984 9.45693 10.6984 9.0194 10.3951 8.7487C10.0902 8.47801 9.59863 8.47801 9.29452 8.7487ZM27.5513 16.6438C27.535 16.6244 27.5256 16.6002 27.5046 16.5815L18.7064 8.7487C18.4015 8.47801 17.91 8.47801 17.6059 8.7487C17.3017 9.02009 17.3017 9.45763 17.6059 9.72763L26.4049 17.5604C26.4251 17.5784 26.4531 17.586 26.4749 17.6019C26.919 17.3666 27.2869 17.0384 27.5513 16.6438Z" fill="white"/>
<path d="M24.8889 0H3.11111C1.393 0 0 1.23992 0 2.76923V3.48231L11.2996 13.518C12.7727 14.8285 15.1791 14.8285 16.6538 13.518L28 3.46777V2.76923C28 1.23992 26.607 0 24.8889 0Z" fill="white"/>
<path d="M24.8888 0H3.11105C1.87594 0 0.817386 0.646615 0.314941 1.575L11.7996 11.7983C13.0145 12.8797 14.9854 12.8797 16.1995 11.7983L27.6849 1.575C27.1825 0.646615 26.1247 0 24.8888 0Z" fill="black"/>
</svg>
