<svg width="16" height="16" viewBox="0 0 16 16" fill="none" xmlns="http://www.w3.org/2000/svg">
<path d="M10.8 2.40002C11.3078 2.39995 11.7966 2.59301 12.1672 2.94006C12.5379 3.2871 12.7627 3.76214 12.796 4.26882L12.8 4.40002V6.44002C13.2287 6.5277 13.6168 6.75347 13.9049 7.08276C14.193 7.41205 14.3652 7.82671 14.3952 8.26323L14.4 8.40002V13.2C14.4002 13.3 14.3629 13.3964 14.2956 13.4703C14.2283 13.5441 14.1357 13.5901 14.0361 13.5991C13.9366 13.6082 13.8373 13.5796 13.7577 13.519C13.6782 13.4585 13.6242 13.3704 13.6064 13.272L13.6 13.2V11.2H2.40001V13.2C2.40019 13.3 2.36294 13.3964 2.2956 13.4703C2.22826 13.5441 2.1357 13.5901 2.03615 13.5991C1.9366 13.6082 1.83728 13.5796 1.75774 13.519C1.6782 13.4585 1.62421 13.3704 1.60641 13.272L1.60001 13.2V8.40002C1.59991 7.93896 1.75912 7.49203 2.05068 7.13486C2.34225 6.7777 2.74826 6.53224 3.20001 6.44002V4.40002C3.19993 3.89225 3.39299 3.40346 3.74004 3.03279C4.08708 2.66212 4.56213 2.43733 5.06881 2.40402L5.20001 2.40002H10.8ZM12.4 7.20002H3.60001C3.30183 7.20002 3.01432 7.31103 2.79352 7.51142C2.57272 7.71182 2.43443 7.98724 2.40561 8.28402L2.40001 8.40002V10.4H13.6V8.40002C13.6 8.10184 13.489 7.81434 13.2886 7.59354C13.0882 7.37274 12.8128 7.23445 12.516 7.20562L12.4 7.20002ZM10.8 3.20002H5.20001C4.9017 3.20004 4.61409 3.31116 4.39327 3.51172C4.17245 3.71228 4.03424 3.9879 4.00561 4.28482L4.00001 4.40002V6.40002H4.80001V6.00002C4.80001 5.89394 4.84215 5.7922 4.91716 5.71718C4.99218 5.64217 5.09392 5.60002 5.20001 5.60002H7.20001C7.30609 5.60002 7.40783 5.64217 7.48285 5.71718C7.55786 5.7922 7.60001 5.89394 7.60001 6.00002V6.40002H8.40001V6.00002C8.40001 5.89394 8.44215 5.7922 8.51716 5.71718C8.59218 5.64217 8.69392 5.60002 8.80001 5.60002H10.8C10.9061 5.60002 11.0078 5.64217 11.0828 5.71718C11.1579 5.7922 11.2 5.89394 11.2 6.00002V6.40002H12V4.40002C12 4.10184 11.889 3.81434 11.6886 3.59354C11.4882 3.37274 11.2128 3.23445 10.916 3.20562L10.8 3.20002Z" fill="#FFFBFB" fill-opacity="0.65"/>
</svg>
