<svg width="24" height="19" viewBox="0 0 24 19" fill="none" xmlns="http://www.w3.org/2000/svg">
<path d="M12 17.4951C11.7667 17.4951 11.5667 17.4449 11.4 17.3446C11.2333 17.2442 11.1083 17.1126 11.025 16.9495C10.7083 16.2472 10.3083 15.5888 9.825 14.9743C9.35833 14.3597 8.7 13.6386 7.85 12.8109C7 11.9832 6.30833 11.1931 5.775 10.4406C5.25833 9.68813 5 8.77889 5 7.71288C5 6.24556 5.675 5.00397 7.025 3.98813C8.39167 2.95975 10.05 2.44556 12 2.44556C13.95 2.44556 15.6 2.95975 16.95 3.98813C18.3167 5.00397 19 6.24556 19 7.71288C19 8.85414 18.7083 9.80727 18.125 10.5723C17.5583 11.3248 16.9 12.071 16.15 12.8109C15.25 13.7139 14.5667 14.4663 14.1 15.0683C13.65 15.6578 13.275 16.2848 12.975 16.9495C12.8917 17.1251 12.7583 17.263 12.575 17.3634C12.4083 17.4512 12.2167 17.4951 12 17.4951ZM12 9.59407C12.7 9.59407 13.2917 9.41222 13.775 9.04853C14.2583 8.68483 14.5 8.23962 14.5 7.71288C14.5 7.18615 14.2583 6.74094 13.775 6.37724C13.2917 6.01354 12.7 5.8317 12 5.8317C11.3 5.8317 10.7083 6.01354 10.225 6.37724C9.74167 6.74094 9.5 7.18615 9.5 7.71288C9.5 8.23962 9.74167 8.68483 10.225 9.04853C10.7083 9.41222 11.3 9.59407 12 9.59407Z" fill="#1D1B20"/>
</svg>
