<svg width="29" height="30" viewBox="0 0 29 30" fill="none" xmlns="http://www.w3.org/2000/svg">
<path d="M14.5 27.5C14.2181 27.5 13.9764 27.4167 13.775 27.25C13.5736 27.0833 13.4226 26.8646 13.3219 26.5938C12.9393 25.4271 12.4559 24.3333 11.8719 23.3125C11.308 22.2917 10.5125 21.0938 9.48544 19.7188C8.45835 18.3438 7.62259 17.0312 6.97815 15.7812C6.35384 14.5312 6.04169 13.0208 6.04169 11.25C6.04169 8.8125 6.85731 6.75 8.48856 5.0625C10.14 3.35417 12.1438 2.5 14.5 2.5C16.8563 2.5 18.85 3.35417 20.4813 5.0625C22.1327 6.75 22.9584 8.8125 22.9584 11.25C22.9584 13.1458 22.6059 14.7292 21.9011 16C21.2163 17.25 20.4209 18.4896 19.5146 19.7188C18.4271 21.2188 17.6014 22.4688 17.0375 23.4688C16.4938 24.4479 16.0406 25.4896 15.6781 26.5938C15.5775 26.8854 15.4163 27.1146 15.1948 27.2812C14.9934 27.4271 14.7618 27.5 14.5 27.5ZM14.5 14.375C15.3459 14.375 16.0608 14.0729 16.6448 13.4688C17.2288 12.8646 17.5209 12.125 17.5209 11.25C17.5209 10.375 17.2288 9.63542 16.6448 9.03125C16.0608 8.42708 15.3459 8.125 14.5 8.125C13.6542 8.125 12.9393 8.42708 12.3552 9.03125C11.7712 9.63542 11.4792 10.375 11.4792 11.25C11.4792 12.125 11.7712 12.8646 12.3552 13.4688C12.9393 14.0729 13.6542 14.375 14.5 14.375Z" fill="#1D1B20"/>
</svg>
