<svg width="16" height="16" viewBox="0 0 16 16" fill="none" xmlns="http://www.w3.org/2000/svg">
<g clip-path="url(#clip0_31_44)">
<path d="M10.6938 2.47955C11.52 2.47955 12.266 2.81761 12.7915 3.36036C13.4452 3.23386 14.0615 3.00336 14.6152 2.68411C14.401 3.33463 13.9452 3.88036 13.3525 4.22561C13.9325 4.15736 14.4878 4.00836 15.003 3.78561C14.6168 4.34411 14.1305 4.83586 13.569 5.22886C13.5743 5.34811 13.5773 5.46861 13.5773 5.5886C13.5773 9.27185 10.6865 13.5201 5.40052 13.5201C3.77802 13.5201 2.26677 13.0571 0.995783 12.2666C1.22316 12.293 1.45188 12.3062 1.68078 12.3061C3.02703 12.3061 4.26677 11.8608 5.25052 11.1123C3.99227 11.0908 2.93027 10.2841 2.56602 9.17733C2.74441 9.21075 2.92552 9.22758 3.10702 9.22758C3.36827 9.22758 3.62277 9.19383 3.86327 9.12983C2.54877 8.87458 1.55802 7.74783 1.55802 6.39655V6.36082C1.94577 6.56982 2.38852 6.69532 2.86027 6.70982C2.08877 6.2093 1.58152 5.35732 1.58152 4.39005C1.58152 3.8788 1.72353 3.3998 1.97078 2.98955C3.38778 4.67505 5.50528 5.78505 7.89403 5.9018C7.84477 5.69829 7.81928 5.4833 7.81928 5.26705C7.81928 3.7273 9.10602 2.47955 10.6938 2.47955ZM15.003 3.78613H15.0055H15.003ZM10.6937 1.47961C8.73022 1.47961 7.10352 2.91413 6.853 4.76763C5.2465 4.44488 3.7855 3.59438 2.73575 2.34663C2.64191 2.235 2.52478 2.14524 2.39259 2.08366C2.26039 2.02208 2.11632 1.99016 1.97049 1.99015C1.9443 1.99015 1.91812 1.99115 1.892 1.99315C1.73349 2.00584 1.58028 2.05608 1.44504 2.13972C1.3098 2.22337 1.19641 2.338 1.11425 2.47415C0.76562 3.05262 0.581417 3.71524 0.581486 4.39065C0.581486 4.8414 0.66247 5.2804 0.815986 5.6909C0.652486 5.87264 0.558236 6.1104 0.558236 6.3614V6.39715C0.558236 7.37666 0.945486 8.28565 1.58849 8.9669C1.55149 9.1384 1.55974 9.31789 1.61624 9.48989C1.838 10.1646 2.24175 10.7461 2.76525 11.1891C2.41374 11.2674 2.051 11.3069 1.68074 11.3069C1.48499 11.3069 1.29449 11.2961 1.11424 11.2741C1.07424 11.2691 1.03474 11.2674 0.994986 11.2674C0.574986 11.2674 0.193736 11.5321 0.0522358 11.9359C-0.103014 12.3784 0.0692514 12.8689 0.467236 13.1166C1.94425 14.0356 3.65024 14.5209 5.40024 14.5209C11.0882 14.5209 14.5097 10.0681 14.5762 5.71861C15.043 5.33246 15.4553 4.88489 15.802 4.38811C15.9336 4.21525 16.0048 4.0039 16.0045 3.78661C16.0045 3.44636 15.8343 3.14561 15.575 2.96485C15.6873 2.5801 15.5592 2.1636 15.2467 1.9091C15.0642 1.7606 14.8405 1.6851 14.6155 1.6851C14.4401 1.68493 14.2678 1.73107 14.116 1.81885C13.7855 2.00936 13.432 2.16011 13.0597 2.26863C12.3862 1.76188 11.5512 1.47963 10.6937 1.47961Z" fill="#FFFBFB" fill-opacity="0.65"/>
</g>
<defs>
<clipPath id="clip0_31_44">
<rect width="16" height="16" fill="white"/>
</clipPath>
</defs>
</svg>
